<?xml version="1.0" encoding="UTF-8"?>
<svg id="Capa_1" data-name="Capa 1" xmlns="http://www.w3.org/2000/svg" viewBox="0 0 1080 1080">
  <defs>
    <style>
      .cls-1 {
        fill: #fff;
      }
    </style>
  </defs>
  <path class="cls-1" d="M18.25,556.79c.24-.12.74-.52.85-1.4l1.06.82,70.02.03c.93,1.69,1.14,6.61-.2,7.97-23.97-.05-47.81-.08-71.52-.08-1.73-2.01-1.76-5.21-.21-7.34Z"/>
  <path class="cls-1" d="M18.25,556.79c-.15,2.21-.55,4.4.47,6.9l5.14-.64c3.54,1.52,5.79.23,9,.26l20.26.2c7.02.07,13.82.5,20.91.18,5.34-.24,10.64,1.1,16.51-.19-.58-2.06-1.28-4,.03-6.38l-70.6-.07c-.71,0-1.04-.69-.86-1.65l71.9-.02c.85,3.37.86,6.03,0,9.39H19.1c-2.07.01-2.77-2.61-2.81-3.79-.07-1.74.09-3.26,1.96-4.19Z"/>
  <path class="cls-1" d="M873.75,724.68c1.74-9.19-3.39-18.51-13.01-20.69-6.3-1.43-12.16,2.64-13.47,8.75-2.19,10.16,5.06,21.38,15.58,22.35-.23,1.71-3.31,1.45-4.94,1.3-7.73-.67-12.03-6.55-13.71-13.59-1.5-2.61-.42-5.07.32-7.65,1.75-6.02,5.47-11.16,11.38-13.07,8.78-.52,16.12.02,19.57,9.2,1.41,3.76,1.18,10.93-1.73,13.39Z"/>
  <path class="cls-1" d="M1059.97,564.78l-1.42-.82.08-2.03c1.94-.14,2.56-1.89,1.4-3.03l-67.03.09c-.77,2.85-2.26,4.18-4.49,3.98l-.83.41c-.57-2-.53-4.23.13-6.68.79-1.17,1.82-1.39,3.47-1.38l70.28.45c2.44.02,2.31,4.13,1.98,5.68-.3,1.38-1.23,3.34-3.57,3.34Z"/>
  <path class="cls-1" d="M876.22,722.56c-2.29,8.61-9.01,15.53-18.47,14.54-7.48-.78-13.52-7.14-13.55-14.3.78.31,1.4,1.16,1.52,2.17.86,6.92,9.88,12.76,17.13,10.12,4.98-1.81,9.85-4.9,10.9-10.41,2.29-6.86,3.01-12.31-1.7-17.86-5.29-6.26-11.77-2.39-16.14-4.74,6.33-2.06,12.95-.86,17.07,3.76,4.24,4.75,4.93,10.4,3.25,16.72Z"/>
  <path class="cls-1" d="M750.65,706.11l6.15,8.92c1.49-.67,1.93.06,1.33,2.17,4.17,6.14,8.02,12.35,11.55,18.65-3.22,1.11-5.32-.35-6.3-4.4-.64-1.43-1.44-2.77-2.29-4.08s-3.84-5.9-4.66-6.47c-.28-.2-.78-.08-1.34.12-.6-4.67-4.44-10.04-7.81-13.69l-4.33-5.38c2.77-.87,4.71-.48,7.01-.44.5,1.42.95,3.38.68,4.62Z"/>
  <path class="cls-1" d="M763.38,731.44c.44.97,1.42,1.51,2.4,2.86l.84,1.16c.38.52,2.3.03,1.97-.51l-17.93-28.84,6.96,9.15,6.79-11.1c.86-1.4.82-2.78,2.56-2.75.85.01,2.55.31,1.78,1.2-4.49,4.25-6.93,9.19-10.32,14.12l11.51,17.31c.44.67,2.42,1.87,1.82,2.11-2.56,1-4.76.51-7.28.27l-1.08-4.97Z"/>
  <path class="cls-1" d="M499.06,731.47l-.17.73-9.5-22.18-3.25,23.96.78,2.27c.14.41-1.85.68-2.76.4-1.96.49-2.17-1.71-.21-2.13l4.09-28.6c1.25-1.15,2.25-.51,2.99,1.92l7.55,19c1.84,2.6,2,4.14.46,4.63Z"/>
  <path class="cls-1" d="M763.38,731.44l-7.76-10.73-8.29,13.02c-.62.98-.46,2.4-1.04,2.77-.51.32-2.15.07-2.82.16-.96.12-.92-.76-.68-1.13.17-.26.91-.58,1.31-.8l10.46-15.59-7.27-11.82c1.57.27,2.34,1.22,3.11,2.51l5.47,9.17c2.57,4.3,6.48,7.75,7.51,12.45Z"/>
  <path class="cls-1" d="M988.51,562.97c1.65-1.42,3.81-1.69,6.46-.82l62.55.08,1.03,1.73c.77-.08,1.48.19,1.42.82l-70.38.06c-1.45,0-2.49-.77-3.03-1.69-.17-.3.02-4.63,1.25-6.44,1.27,1.14-1.31,5.99.7,6.27Z"/>
  <path class="cls-1" d="M930.62,693.18c-.45,3.11-4.05,5.16-6.21,6.26.55-4.42,3.48-8.21,6.21-6.26Z"/>
  <path class="cls-1" d="M502.78,731.47c-.5,1.46-.58,3.1-1.86,4.77-1.65-1.28-1.49-2.79-2.02-4.04l.17-.73c.33.64,1.22,2.03,2.07,1.64.64-.3,1.19-1.27,1.65-1.64Z"/>
  <g>
    <path class="cls-1" d="M626.19,706.78c-3.5-3.59-8.21-5.55-14.02-5.44l-15.21.28c-.31,1.27,1.13,2.26,1.42,3.09l.04,27.65c0,1.67-.73,2.88-1.69,4.14h17.15c8.33,0,14.42-6.27,15.99-14.31,1.12-5.81.29-11.32-3.67-15.41ZM623.48,728.37c-5.33,8.21-16.51,7.72-19.64,4.92-1.56-1.4-1.37-3.17-1.37-5.25l.09-24.72c8.05-1.83,17.27.89,21.35,8.47,3.02,5.59,2.77,11.66-.44,16.58Z"/>
    <path class="cls-1" d="M600.98,732.51c0,.66,2.69,2.45,1.22,2.43l-2.56-.04.49-30.13-.84-1.42c-.14-.24,1.08-.74,2.08-.31l-.39,29.48Z"/>
  </g>
  <g>
    <path class="cls-1" d="M714.09,736.46c1.48-2.27.85-4.69.5-7.25l-2.75-19.68-11,26.82-11.3-26.05-3.14,22.93c-.11.8.38,1.82.53,2.33.49,1.66-1.04,1.07-1.71,1.24-1.67.43-2.32-.24-1.52-1.43l4.32-30.3c-1.07-1.12-1.9-1.57-2.73-3.33l5.49-.18,11.22,27.01,10.84-26.62c1.61-.51,2.95-.82,4.52-.35l-1.46,3.92,3.69,28.3c.44.75,1.83,1.48,1.75,2.75l-7.25-.09Z"/>
    <path class="cls-1" d="M694.79,714.89l5.47,13.89c.36.91,1.61,1.61,1.57,2.23-.05.91-.55,2.48-1.29,3.03l-11.89-28.99c-.28-.69-.51-1.27-.43-1.64.12-.59.68-.87,1.25-.75s1.05.26,1.2,1.18c.65,3.91,2.58,7.16,4.11,11.05Z"/>
    <path class="cls-1" d="M716.92,734.95l-3.88-25.75c-.35-2.3-1.72-4.78,1.78-6.69-.29,4.45.25,8.25.8,12.66l2.44,19.75-1.14.03Z"/>
  </g>
  <g>
    <path class="cls-1" d="M446.35,710.54c-2.1-4.42-6.94-9.07-13.06-9.04l-19.05.12c1.46,2.52,1.26,4.22,1.25,6.52l-.08,23.36c0,1.89-.53,3.22-1.11,5.12l19.12-.41c9.19-.19,18.35-14.25,12.92-25.67ZM439.61,730.43c-4.18,4.83-14.41,6.78-18.9,2.18l-.76-29.2c7.73-1.88,16.57.49,21.3,7.56,4.39,6.57,2.8,14.32-1.64,19.46Z"/>
    <path class="cls-1" d="M417.82,702.21c2.79,10.03-1.09,30.12,2.23,32.01.51.29.19.74-.12.75l-2.62.08.51-32.84Z"/>
    <path class="cls-1" d="M445.04,724.47l-.42-8.53c-.26-5.23-4.21-9.74-9.56-11.79,2.93-.6,6.19.97,8.06,3.84,3.2,4.89,4.61,10.94,1.92,16.48Z"/>
  </g>
  <path class="cls-1" d="M801.56,702.67c-6.62-3.45-15.63-1.36-20.01,4.55-3.64,4.9-6.05,11.12-4.84,16.66,1.28,5.88,5,10.27,9.43,12.15,5.26,2.23,10.69,1.49,15.5-2.17,4.8-3.66,7.2-9.01,8.06-14.84.95-6.37-2.19-13.25-8.14-16.36ZM805.4,727.45c-2.16,3.61-6.3,7.52-11.24,7.05-8.81-.83-13.79-8.74-14.33-16.84-.26-4.04.6-7.91,3.45-10.61,2.22-2.12,6.2-4.41,9.83-3.45,11.04,2.92,17.05,15.88,12.29,23.85Z"/>
  <g>
    <path class="cls-1" d="M503.02,730.77c-1.26.67-2.41.78-2.99-.5l-10.61-25.83-1.77-.52c-.83-.41-1.72-.7-1.92-2.11,1.43-.31,4.32-.66,5.46.29l10.92,26.19,10.82-26.22c.41-1,3.68-.86,4.59-.05-.79,1.32-1.67,2.78-1.47,4.39l3.05,24.72c.26,2.13.95,3.72,2.35,5.25-2.45.38-4.29.41-6.81.1l.53-3.13-3.61-23.05-8.55,20.47Z"/>
    <path class="cls-1" d="M503.02,730.77l-.24.69c-1.62,3.71-2.55,4.22-3.72,0-.04-2.72-1.46-5.08-2.55-7.8l-5.92-14.82c-.5-1.24-1.75-1.98-2.53-2.93.08-.53-.13-1.71-.41-2,.24-.67.92-1.37,1.52-1.38,1.05-.03,1.56.74,1.78,1.77,1.05,4.97,3.46,9.01,5.15,13.68l2.99,8.27c.78,2.17,2.24,3.5,3.93,4.5Z"/>
    <path class="cls-1" d="M516.72,734.93l-3.56-26.5c-.29-2.19-1.37-4.19,1.34-5.61l2.38,22.11.91,9.96-1.08.04Z"/>
  </g>
  <g>
    <path class="cls-1" d="M461.81,719.35v12.12c.02,2.08,1.58,3.47,3.57,3.47h7.8c2.06,0,3.04-1.25,4.43-3.29.73,2,.19,3.09-.26,4.98l-21.45-.05c1.11-1.67,1.74-3.1,1.74-5.05v-26.96c-.01-.67-1.78-1.64-1.39-2.82l16.15-.19c.82,0,2-.47,2.61.07.65.57.99,1.73.46,3.85l-2.48-2.15-11.25-.19-.09,14.99,9.66.26c.72.02,1.81-.86,2.28-.69.82.3.6,2.44-.05,2.25-3.65-1.05-7.72-.44-11.74-.58Z"/>
    <path class="cls-1" d="M459.48,734.94l-.14-31.54c.17-.35.49-.46.68-.46l.63,31.97-1.17.02Z"/>
  </g>
  <g>
    <path class="cls-1" d="M644.12,719.36l-.11,12.1c-.02,2.07,1.58,3.48,3.54,3.48h7.79c2.13,0,3.31-1.19,4.02-2.94.87,1.86.65,3.13.27,4.69l-21.51-.1c.94-1.34,1.69-2.57,1.7-4.22l.05-27.78c-.13-.76-1.77-1.66-1.46-2.98l19.1.1c.43,1.53.97,3.06.02,4.81-.42-1-.75-3.32-2.2-3.33l-11.31-.12-.07,15.07,9.57.23c.71.02,1.81-.84,2.29-.68.75.26.62,2.45-.03,2.26-3.52-1.04-7.01-.48-11.65-.59Z"/>
    <path class="cls-1" d="M642.39,732.64l.78,1.87c.15.36-1.42.68-2.03.42-.74-.31.15-1.35.38-1.8l-.26-30.36c.65.03,1,.4,1.15.65l-.03,29.22Z"/>
  </g>
  <g>
    <path class="cls-1" d="M908.54,734.27c1.42-2.52,1.36-7.7-.88-10.25,2.35-.56,4.59-.39,7.5-.17-2.73,3.65-1.93,8.33-.64,12.74l-13.71-.16c-8.21-.1-14.04-6.2-16.18-14.22-1.56-5.86,1.08-12.65,5.32-16.53,7.5-6.85,20.26-4.03,21.6-2,.55.84,1.28,2.55.63,3.45-3.77-4.23-11.48-6.17-16.3-2.77-8.95,6.31-9.84,19.5-2.2,27.09,3.72,3.7,10.3,4.51,14.86,2.83Z"/>
    <path class="cls-1" d="M888.24,727.04c-3.98-5.81-3.53-14.56,2.05-19.86-3.08,6.39-3.23,12.28-2.05,19.86Z"/>
    <path class="cls-1" d="M912.68,725.2c-2.98,7.64,2.94,12.2-3.27,10.21,1.71-4.42-.21-9.62,1.1-10.83.53-.49,2.36.1,2.16.62Z"/>
  </g>
  <g>
    <path class="cls-1" d="M405.26,734.48l-12.82-33.2c-.79.5-.97,1.16-1.18,1.39,0,2.62-.17,3.62-1.94,5.31l-10.27,26.08c-.29.73-2.74,1.58-.97,2.71.59.1,2.45-.1,2.99-.23.53-.14.37-1.57.6-2.23l4.81-13.71c2.79-.63,5.62-.63,8.48.08l5.13,13.6-.08,2.3c6.31.54,8.68-.07,5.24-2.09ZM386.93,719.25l3.74-9.76,3.85,9.66-7.59.1Z"/>
    <path class="cls-1" d="M389.31,707.98c.74-1.89.47-3.68,1.95-5.31.95.89,1.2,2.17,1.75,3.61l10.6,28.12c.3.78-.3.98-.94,1.02-1.69.12-.98-1.03-1.31-1.9l-8.7-23.37c-.31-.83-.73-1.73-1.24-1.96-.67-.3-1.51-.14-2.11-.21Z"/>
  </g>
  <g>
    <path class="cls-1" d="M344.8,714.33c-1.42,8.62,3.5,17.61,11.6,20.66,5.54,2.09,11.25-.2,15.63-3.89.46,3.68-2.3,4.24-4.83,4.9-6.16,1.59-11.95,2.05-17.87-.92-8.48-4.26-11.54-17.47-5.06-26.3,8.62-11.75,23.3-6.81,24.18-5.14.5.95,1.28,2.43.7,3.71-2.78-3.33-6.09-4.24-9.97-4.52-7.13-.52-13.09,3.68-14.39,11.51Z"/>
    <path class="cls-1" d="M349.76,733.11c-6.57-1.76-10.01-14.33-6.11-20.01-.69,7.88.76,14.47,6.11,20.01Z"/>
  </g>
  <g>
    <path class="cls-1" d="M570.44,734.25l-12.92-32.63c-.29,2.23-1.04,3.72-2.23,4.47l-10.77,27.65-1.99,2.67,3.49.09c.82.02.51-2.13.84-2.99l5.03-13.23,8.41.1,4.89,13.17.41,2.58c.12.8,5.3,1.12,6.18.1.35-.4-1.05-1.22-1.35-1.97ZM552.26,718.98l3.41-9.29c2.32,3.22,2.84,6.23,3.99,9.61-2.95.1-4.8.21-7.41-.32Z"/>
    <path class="cls-1" d="M555.29,706.08c.56-1.45.13-3.55,2.23-4.46l11.36,33.35c-.4-.01-1.03,0-1.45.15l-9.55-24.47c-.7-1.8-.93-3.56-2.59-4.57Z"/>
  </g>
  <g>
    <path class="cls-1" d="M964.76,734.25l-12.92-32.63c-.29,2.23-1.04,3.72-2.23,4.47l-10.77,27.65-1.99,2.67,3.49.09c.82.02.51-2.13.84-2.99l5.03-13.23,8.41.1,4.89,13.17.41,2.58c.12.8,5.3,1.12,6.18.1.35-.4-1.05-1.22-1.35-1.97ZM946.58,718.98l3.41-9.29c2.32,3.22,2.84,6.23,3.99,9.61-2.95.1-4.8.21-7.41-.32Z"/>
    <path class="cls-1" d="M949.61,706.08c.56-1.45.13-3.55,2.23-4.46l11.36,33.35c-.4-.01-1.03,0-1.45.15l-9.55-24.47c-.7-1.8-.93-3.56-2.59-4.57Z"/>
  </g>
  <path class="cls-1" d="M1058.55,563.96l-63.71-.09-6.33-.9c1.94-.9,2.12-3.01,2.21-5.7l61.77-.08c3.36,0,6.25.79,9.47-.71.3,2.76.42,4.49-.2,6.32-.93.31-2.54.53-3.21,1.16Z"/>
  <g>
    <path class="cls-1" d="M535.57,736.57c-3.19.31-5.08.3-7.99-.16.67-.95,1.78-1.92,1.79-3.22l.13-25.92c.01-2.08.03-3.47-1.73-5.5l7.63-.13c-2.22,3.76-1.83,7.5-1.16,11.81,1.54,9.98-2.74,17.38,1.32,23.12Z"/>
    <path class="cls-1" d="M532.75,734.35c0,.43-1.24,1.04-2.18.6l.65-31.97,1.4-.02.13,31.4Z"/>
  </g>
  <g>
    <path class="cls-1" d="M931.11,736.52l-8.08-.06c1.51-1.53,1.82-2.88,1.82-4.95v-25.13c0-1.96-.44-2.93-1.82-4.56l7.92-.19c-1.44,2.4-1.15,4.57-1.15,7.41v17.21c-.01,3.66-.79,6.95,1.31,10.28Z"/>
    <path class="cls-1" d="M927.99,734.78c-1.3,1.08-2.23-.24-1.9-.5l-.36-30.52c-.01-1.17,1.37-1.38,2.08-.96,1.12.67.65,1.46.63,2.72l-.44,29.26Z"/>
  </g>
  <g>
    <path class="cls-1" d="M735.72,736.63l-8.01-.05c1.44-2.16,1.9-3.6,1.89-5.94l-.03-24.24c0-1.73-.55-2.89-1.76-4.39l7.6-.65c.11,1.53-1.17,2.38-1.54,3.32l.08,28.57c0,.92,1.2,1.65,1.79,3.39Z"/>
    <rect class="cls-1" x="730.49" y="702.97" width="1.73" height="32.87"/>
  </g>
  <g>
    <g>
      <g>
        <path class="cls-1" d="M672.91,641.6c0,4.38.41,9.07-2.49,13.58l-2.88,2.82,56,.94c1.53.03,2.34.59,2.62,1.72-23.35.43-46.97.63-70.88.6-1.36-.75-1.36-1.78-.53-3.02,12.08-1.18,17.67-5.59,15.32-18.3l-.06-211.57c0-.42.05-.82.23-1.14,1.69-2.92,3.15,7.82,2.74,9.1l-.09,205.26Z"/>
        <path class="cls-1" d="M726.17,660.67h5.18c.24-.76.53-.75.86-.01,19.85-.75,40.63-.74,60.46,0,.11-.63.23-1.13.4-1.15,3.73-.42,10.49-.67,13.35,1.18.48,0,1.75.28,1.77-.86l.24-13.87c.15,0,.47.1.63.45v15.1s-145.73.06-145.73.06c-3.27,0-6.08,1.57-9.1.03-.99-.5-.98-2.53-.2-3.5,2.25-2.81,11.53-.49,14.28-5.95,1.85-3.68,1.77-8.47,1.77-12.22,1.27,4.22,1.73,10.07-1.6,13.94-3.15,3.65-8.27,4.4-12.86,4.54-.84.02-.83,2.15-.12,2.16l70.68.09Z"/>
        <g>
          <path class="cls-1" d="M796.05,417.94l-1.62,4.64.21,16.3c.98,1.77-.26,2.34-2.24,1.83-.8-5.6-2.64-10.5-5.52-14.69-.09-.1-.49-.15-1.19-.16-.85.39-2.11.11-3.79-.84-27.84-.52-55.74-.7-83.69-.55l-1.41,1.92-.05,103.8.14,2.23c1.36.64,2.04,1.02.6,1.05l73.07-.22c5.59-.65,10.15-1.92,11.24-8.37,1.67-1.99,4.22.51,2.17,1.88.24,7.35.26,14.76.06,22.23-1.44.49-2.68-.84-3.72-3.98-1.53-2.25-3.74-3.71-6.64-4.38-1.39-.47-2.17-.78-.88-1.04l-73.37-.06c-.91.6-1.99.95-3.24,1.07,1.75.11,2.37.64.74,1.05l-.08,82.13-.93.59c.25.46.58,1.08.52,1.57-1.13,8.19-.2,18.37,7.19,23.94l.54-.97,8.84,2.89c26.36.7,52.65.6,78.89-.29,3.64-.99,6.81-2.82,9.51-5.49,2.3-5.89,3.96-11.97,5-18.24,3.89-2.29,2.98,7.6,2.32,10.04-.03.13-.06-2.52,1.17-1.51l.09,23.54c0,.94-.29,1.57-.89,1.67l-2.64-.82-2.51-1.2c-23.38-.51-46.84-.69-70.4-.53l-2.16,1.7c-1.09.76-3.88.67-5.18.01l-2.69-.86-55.65-.5-1.19-1.93c4.89-3.86,5.93-9.31,5.13-15.24l1.14-.54.08-205.27c0-5.25-1.85-13.2-6.46-15.9-1.51.36-3.39.18-5.63-.55-7.16.15-9.07-1.29-5.73-4.33,46.93-.22,93.97-.19,141.12.1.32.96.24,1.73-.24,2.29Z"/>
          <g>
            <path class="cls-1" d="M785.68,425.86c2.47-.15,5.39,4.68,1.85,4.36-1.73-3.43-5.62-5.04-10.05-5.05l-79.79-.29-.21,107.56,75.16-.21c4.95-.01,8.36-3.88,8.42-7.99,1.51-1.15,2.93-.77,3.64-.17,1.25,1.05.29,2.66.29,3.58-1.26,1.1-1.6.65-1.03-.9.47-.55.24-2.14-1.2-2.14-.88,2.82-2.1,6.59-5.37,7.6-2.55.79-5.44,2.17-8.28,2.17l-72.06.1c-1.08-1.98-1.06-3.69-1.06-6.02l-.08-104.41,84.53.04c2.14,0,3.82,1.07,5.24,1.77Z"/>
            <path class="cls-1" d="M785,527.64l-.05,18.02c0,1.71.86,3.21-.99,3.98-1.07.45-2.63.23-3.22-1.43-.47-3.41-3.29-6.65-7.18-6.65l-75.91-.07.12,88.82,1.5,8.87c1.25,6.63,6.38,11.72,13.56,11.75l71.13.3c6.89.03,13.02-.94,17.23-6.18.4.26.47.58.19.97-2.68,3.81-7.21,6.7-12.24,6.76l-19.8.21c-12.03.13-23.36.47-35.45.18l-20.68-.49c-.39,0-1.59,1.23-1.97,1.07-.33-.14-.25-.75-.22-1.51-2.57-.73-5.02-2.38-7.41-2.36-7.78-5.5-8.13-17.18-7.7-25.51l.27-83.77,1.31-1.07,75.6.06.59,1.04c4.89,0,7.16,3.24,9.81,8.64l-.34-20.8c-.01-.87.3-1.51.84-1.71.28.41.62.73,1.03.9Z"/>
            <path class="cls-1" d="M797.16,449.14c-3.77,1.65-3.92-7.87-1.04-8.67-.84-6.14-.7-12.82,0-19-2.08.08-1.05-2.18-.07-3.54,0-.33.24-.83-.23-1.64h-130.82c-3.84,0-6.8.78-10.35-.18-.25,1.28-.24,1.7,0,2.92,4.33-1.07,8.08.25,11.88,1.39,1.86.4,4.19,2.6,2.02,3.56l-3.67-2.48c-6.3-1.69-10.31.32-12.03-3.19-.44-.9.55-3.45,2-3.47l16.18-.24h125.72s.38,24.99.38,24.99c.05,3.3,1.85,6.78.02,9.56Z"/>
            <path class="cls-1" d="M672.91,641.6l-.37-205.23-.98-7.1c-.11-.82-1.26-.94-1.54-.9-.64-1.16-1.6-3-1.47-4.39.15-1.64-1.39-2.3-2.02-3.56.71.21,1.92-.73,2.99.77,2.22,3.12,3.94,6.52,3.94,10.97l-.55,209.43Z"/>
            <path class="cls-1" d="M796.11,421.48c-.75,6.1-.83,12.91,0,19l-.06,6.98c0,.96.4,1.55,1.1,1.69-.65.99-2.14,1.16-3.19.81s-1.46-1.79-1.62-3.18c-.64-6.13-1.81-11.66-4.81-16.56,1.45-1.63-.71-3.02-1.85-4.36-.03-.96.72-1.09,1.23-.76l1.29.85c3.24,3.23,3.69,7.52,4.52,12.11-.59,1.39.96,1.92,1.43.66l-.57-16.38c-.07-2.11.94-3.62,2.47-4.4l.07,3.54Z"/>
            <path class="cls-1" d="M809.87,636.3c-.74.3-.86.75-1.26,2.11l-.28-8.05c-.02-.44.21-1.53-.05-1.98s-1.12-.64-1.69.48c-.76,6.21-1.81,12.31-5.22,17.15-.05-.3-.03-.65-.19-.97,4.44-8.98,1.93-17.84,5.92-18.59.88-.17,2.67-.05,2.69,1.48l.08,8.37Z"/>
            <path class="cls-1" d="M773.67,540.61l-77.5-.03c.99-.19.86-1.32.98-2.15l52.53.03,23.49.05c.64.06.75,1.33.49,2.09Z"/>
            <path class="cls-1" d="M806.43,660.69l-13.75-.03c-19.79-.76-40.66-.74-60.46,0h-.86c-.32-.96-1.08-1.58-1.8-2.53l74.01.13c1.76,0,3.08,1.14,2.87,2.43Z"/>
            <rect class="cls-1" x="696.81" y="421.48" width="83.76" height="1.73"/>
            <path class="cls-1" d="M695.9,624.36c1.36,1.3.89,3.19.89,5.22,0,5.67,1.38,11.12,3.8,16.04l3.01,4.24c-5.54.05-9.12-12.98-9.14-20.75l-.3-87.17c0-.24.58-.59.87-.51l.07,85.54c1.26-.32,1.06-1.79.8-2.62Z"/>
            <rect class="cls-1" x="694.22" y="425.79" width=".86" height="108.37"/>
            <path class="cls-1" d="M796.11,440.47c-.57-.09-1.01-.72-1.01-1.67l.09-15.66c0-.93.34-1.58.91-1.67v19Z"/>
          </g>
        </g>
        <path class="cls-1" d="M792.67,660.66h-60.46c-.05-.33.29-.87.95-.87h58.54c.66,0,1,.54.97.87Z"/>
      </g>
      <g>
        <path class="cls-1" d="M914.57,426.43c3.34-1.5,8.32,2.28,11.18,4.52,3.67,2.04,5.45,4.51,5.32,7.4.4,2.17-.43,2.34-2.31,1.51-6.99-8.63-18.89-13.07-30.68-14.02l-8.78-.71-21.51-.16-.06,213.9c0,4.72-.21,9.03,1.97,13.11,3.62,6.79,14.14,2.66,15.5,6.59.49,1.42,0,3.55-1.93,3.51l-14.09-.29-29.93-.07-12.16.51c-1.58.07-3.59-.45-3.85-2.01-.91-5.54,11.56-1,15.39-9.61,1.14-2.57,1.15-5.88,1.19-8.59l.49-15.99c.44.1.78.2.79.34.38,3.71.41,8.23-.05,11.86.46.11.82.23.83.39.37,3.16-.22,6.96-.75,10.11.33,4.47-4.89,10.69-10.14,9.05l-.47.98c-3.21-.24-4.61.42-4.21,1.98,12.21-1.08,24.87-2.04,37.3-1.45.21.01.4.5.59,1.12l6.74-.42c0-1.28.87-1.76,2.62-1.44-1.29-.03-2.01-.45-2.16-1.27-5.55.56-9.82-7.28-6.4-11.16-.08-2.53.05-4.91.38-7.13-.18-71.7.05-143.33.68-214.89-.28-1.66.41-1.71,1.04-.08l2.51-1.26c15.28-.74,30.26.49,44.96,3.69Z"/>
        <path class="cls-1" d="M841.06,638.23l-.74-12.2-.2-183.83.92-2.58c.23-.76.5-.75.83-.01.55,66.11.63,132.4.26,198.87l-1.07-.25Z"/>
        <path class="cls-1" d="M958.89,439.2c5.08,7.1,7.24,14.75,9.35,23.02.24.94.34,1.68-.46,2.45.88,12.47-.28,24.69-3.47,36.65-1.21,2.17-1.72,3.77-1.53,4.79l.48.52c-1.28,1.86-2.05,3.72-2.31,5.57-8.62,13.7-23.07,22.39-38.72,26.01-1.79.12-2.08-.27-.85-1.16-.47-3.1,4.96-5.52,7.61-6.65,7.57-1.64,14.31-5.46,20.21-11.44,3.56-1.14,7.01-2.41,6.53-6.8,11.12-21.32,12.33-49.17-.45-69.83-.96-2.03-1.48-3.56,1.3-3.63.03-.94.79-.78,2.29.49Z"/>
        <path class="cls-1" d="M943.76,483.54c3.03,3.43.77,13.5-.58,17.77-4.05,12.8-9.07,22.05-20.05,30.16-.28.21-.84.04-1.47-.24l-4.93,2.66c-7.91,2.41-9.2,3.76-3.85,4.04,2.93-.65,5.76-.94,8.52-.88l.85,1.16c-4.82,1.12-9.3,2.41-14.72,2.73l-9.58.56c-2.18.13-3.77-1.41-3.9-2.9-.11-1.22,1.62-3.51,3.19-3.37,23.75,2.15,41.1-17.56,44.23-41.16l.91-6.87c.03-4.47.12-8.92.28-13.35l.98-.58c.25,3.3.86,6.33,1.82,9.09l-1.71,1.18Z"/>
        <path class="cls-1" d="M907.52,415.4c.75.28.73.59-.02.91-4.56,1.37-9.67,1.66-15.32.87-19.72-.29-39.31-.02-58.75.81l.78,1.9c1.32-.83,3.09-.96,3.43.71,4.57,3.03,5.22,9.09,3.95,14.08.07,1.82-.12,3.46-.55,4.94,0,.97.13,2.09-.92,2.58l.06-9.59c.02-2.95-.32-6.59-2.37-8.81-5.11-5.53-14.59-.83-14.93-6.2-.06-.98,1.14-3.03,2.77-3.03l72.25.12c3.42,0,6.48,1.47,9.62.7Z"/>
        <path class="cls-1" d="M958.89,439.2c-.87.15-1.76-.48-2.29-.49-.71,1.05-1.53,1.79-2.57,1.12-9.36-8.88-20.13-14.99-32.97-17.41-1.58-2.04-3.89-3.12-6.95-3.23-2.7.2-4.63-.46-5.79-1.99-.65-.21-.92-.5-.82-.88l.02-.91c1.86-.46,3.93.63,6.14.79,17.89,1.34,34.56,9.38,45.24,23.01Z"/>
        <path class="cls-1" d="M931.07,438.36c1.02.01,2.02.21,2.85.84,5.44,4.12,10.91,19.81,12.61,26.62.52,2.09,2.25,14.63,1.22,15.56-1.14,1.03-2.02,1.53-3.18.42l-.43-9.01-.49.49c-1.36,2.96-.41,7.44-1.27,13.93l-.52-17.31c-.96-11.52-6.15-21.45-13.1-30.03.61-.96,1.31-1.31,2.31-1.51Z"/>
        <path class="cls-1" d="M960.97,512.2c-.69-.06-.92-.82-.6-1.43l2.42-4.66c4.48-13.23,6.14-27.05,5-41.45-.87-8.98-4.59-17.57-8.89-25.47,14.94,19.07,15.11,52.28,2.07,73.01Z"/>
        <path class="cls-1" d="M908.31,417.19c4.67-.37,8.85.75,13.94,2.12-.72.23-1.6.51-2.02,1.17,12.01,2.44,23.09,7.02,31.61,15.31,1.61,1.57,2.61,2.84,4.75,2.91-.79,1.28-.1,2.38.76,3.66,5.95,8.91,7.68,18.95,8.57,29.57,1.18,14.13-1.99,28.17-8.54,40.63.57,3.37-2.21,6.33-5.14,7.11-3.13.42-4.69,3.38-7.16,5l-8.38,5.5c-4.8,1.84-10.6,1.66-14.71,5.1,1.41-.11,2.36-.21,3.1.92-2.07-.19-2.77.67-3.72.87-8.32,1.78-16.95,3.09-25.5,2.6-.19-2.23.98-2.4,2.05-2.48,8.54-.68,16.42-2.03,23.72-5.93l.19,1.21c-2.53,3.38-3.25,3.89-2.18,1.5,13.94-8.82,23.45-24.17,24.79-40.83,1.54-3.38,1.62-6.72-.7-9.58l-.11-10.27c.21-.68-.48-2.12.87-2.76l.26,9.44c.01.37.93,1.18,1.21,1.05.31-.14.57-1.05.5-1.69l-1.09-9.44c-1.4-12.19-7.08-22.48-14.34-31.5-4.34-5.4-10.25-8.92-16.5-11.93-14.74-3.18-29.74-4.41-44.98-3.69l-2.48,1.26-1.04.08c-.13.75-.44,1.02-.92.82l-.44,1.97c-.41,67.51-.49,135.29-.25,203.34.49,5.3.68,10.59.56,15.89.49,3.4.88,8.03,4.67,9.78l4.34.99,10.74,3.24-20.56.28.58-1.14c7.78-.53,7.56-.52-.67.02l-23.06.03c-4.79.61-9.7,1.09-14.73,1.42-.49,0-1.93-.09-1.83-1,1.61-1.94,4.57-1.67,6.51-1.96,9.29,1.37,11.49-10.1,12.61-16.97-.76-68.63-.96-140.82-.02-209.84l-1.15-.28c-.45-3.86-1.35-7.9-4.79-10.1-1.25.06-2.32-.38-3.43-.71-1.47-1.86-.61-2.73,2.56-2.6,21.98-.29,44.05-.16,66.2.4,1.31-1.34,3.78-1.38,5.34-.49Z"/>
        <path class="cls-1" d="M865.38,638.97c0,2.04,1.87,5-.38,7.13-.2-1.34-1.34-3.27-.8-5.22,1.06-3.86-.69-6.86-.69-10.65l.02-181.64c0-3.17,1.67-5.15.16-8.45-1.21-2.64.4-6.22.63-9.11.19-2.32-.74-4.62.81-6.12.49,71.11.57,142.47.24,214.07Z"/>
        <path class="cls-1" d="M842.73,640.82c.72,2.07.37,6.95-1.59,7.91l-.08-10.49c.26,0,.82-.24.82-1.09l-.02-197.54c-.61-1.8-.98-5.17.69-6.07,1,67.61.86,139.35.17,207.28Z"/>
        <path class="cls-1" d="M865.38,638.97l-.24-214.07c.24-.24.5-.79.92-.82l-.68,214.89Z"/>
        <path class="cls-1" d="M914.57,426.43c-1.32,1.01-2.82.67-4.55.36l-14.56-2.66-28.35-.12c-.08-1.14.73-2.57,2.41-2.54l28.43.58c6.22.13,11.59,1.97,16.62,4.39Z"/>
        <path class="cls-1" d="M864.2,660.4l-37.89.33c.12-.64.73-.95,1.72-.98l11.42-.37c.16-.63.59-1.36,1.48-1.35l30.31.18v1.48c-2.36-.49-4.9.69-7.05.71Z"/>
        <path class="cls-1" d="M831,657.78c5.2-.78,7.93-4.7,10.14-9.05,1.12-2.2,1.58-5.39,1.59-7.91.25-.76.54-.75.89,0,0,5.32-1.2,11.67-4.64,15.75-2.4,2.84-5.52,2.89-7.97,1.21Z"/>
        <path class="cls-1" d="M843.59,430.97c-.2,1.1-.55,1.95-1.03,2.56-.81,1.58-.69,4.1-.69,6.07h-.83s-.04-9.52-.04-9.52c-.01-3.65-1.65-6.82-3.36-9.5,3.64-.19,5.95,6.28,5.95,10.38Z"/>
        <path class="cls-1" d="M962.79,506.11c-.38.25-1.15-.38-.93-.78,3.15-5.91,4.79-12,4.9-18.61l.35-21.16c.01-.62.47-.95.67-.9l.62,6.39c1.1,11.29-.7,25.59-5.62,35.05Z"/>
        <path class="cls-1" d="M921.65,531.24c11.22-9.88,15.22-14.83,20.47-30.14-.09-1.73.56-3.42,1.4-4.57-.38-2.1-1.41-4.48,1.46-6.16l-1.22-6.83c1.8.53,2.9,2.12,2.7,4.43-3.22,37.59-25.6,45.39-25.54,46.44l.1,1.69c-3.62-.15-6.91,2.25-10.49.55,4.86-1.64,8.25-2.89,11.11-5.41Z"/>
        <path class="cls-1" d="M907.49,416.31c.41,0,.83.46.82.88-1.34.11-3.2-.9-4.49.85,1.95-.03,3.52-.47,4.72.66-5.85,1.19-10.98-.69-16.54-.67l-49.31.21c-1.68,0-2.67,2.03-4.95.26-.82-.64-3.36.15-3.54,1.38-2.98-.87-6.06-1.24-9.46-.95-.28-.98-.28-1.73.08-2.64l82.66.02Z"/>
        <path class="cls-1" d="M843.61,640.81h-.89s-.17-207.28-.17-207.28c.34-.67-.07-2.15,1.03-2.56l.02,209.84Z"/>
      </g>
    </g>
    <g>
      <g>
        <g>
          <g>
            <path class="cls-1" d="M279.66,626.3c1.24,4.53-1.95,3.12-2.93-.44l-.65.37c-5.19-10.09-8.23-21.32-8.21-33.11l.05-31.54.42-125.33c.02-4.76-.93-8.41-2.17-12.29-1.18-1.41-1.58-2.57-1.19-3.48,1.74.74,3.88,1.91,4.63,4.23,1,3.11,2.14,6.25,2.14,9.91l.1,151.63c.01,15.75.94,26.09,7.79,40.05Z"/>
            <path class="cls-1" d="M296.14,433.64l-.55,146.61-.5-.15,1.01,9.96-.68,3.41c2.55,2.04,2.12,12.79-.57,6.33l-.55.49c-2.19-8.6-2.41-17.39-2.41-26.96l.02-136.19,1.26-11.68c.34-3.2,2.38-4.53,4.95-7.12l-32.26-.44c-1.34-.02-1.95,1.42-1.75,2.23-.31.34-.62.6-.91.58-1.4-.1-10.59-1.36-11.04-1.71-.96-.75-.67-2.92.52-3.29l57.58-.2c2.77.51,3.79,2.7.8,3.89-10.62.07-16.56,2.88-14.94,14.26Z"/>
            <path class="cls-1" d="M312.7,631.25c-.46.32-.61.73-.49,1.03s.33.86.7,1.24c15.76,15.92,37.28,18.73,58.4,14.29.49,4.22-11.64,3.08-20.74,3.36s-17.63-1.58-25.71-6.38c-9.81-5.83-18.25-14.21-23.64-24.49-3.38-6.44-5.2-13.36-6.89-20.01.14-.74-.28-1.48.14-2.92,1.45,1.04.72,2.49.95,3.89,2.21-2.4-.34-5.42.02-7.8.24-1.57.6-3.07,1.09-4.48,1.63,15.35,5.5,30.81,16.18,42.27Z"/>
            <path class="cls-1" d="M279.66,626.3c6.3,12.84,17.67,23.35,31.08,28.41.31.26.57.54.67.86,1.32,4.34,37.45,7.57,44.45,4.67l1.67.73c3.96-.75,7.95-1.22,12.08-2.82,8.7-3.37,17.03-6.9,24.43-12.86.64-.51,1.54-.1,1.4.61-13.66,10.53-29.96,16.23-47.48,17.68-30.24,2.5-58.12-10.62-71.87-37.35-.6-1.37,1.04-2.56,1.35-.72.05.81.38,1.42.55,1.87.09.23.66.95.98.11l.69-1.2Z"/>
            <path class="cls-1" d="M296.14,433.64c-1.89-3.27-.74-7.58,1.14-10.98,6.64-6.33,17.47-2.11,14.41-5.91-.62-.78-1.52-.34-2.59-.34h-56.13c-1.05,0-.91,2.16.21,2.16,3.97.01,7.69.15,10.95,1.55l.87.37c1.07.95.88,2.52,1.19,3.48-4.68-5.72-12.81-1.71-14.87-4.81-.6-.9-.35-4.12,1.17-4.19,18.38-.84,36.36-.32,54.91-.09,1.7.02,3.59-.68,4.83.43.82.74,2.1,2.85.83,4.1-2.51,2.47-14.19-.71-15.84,6.49-.61,2.67-.08,5.44-1.07,7.74Z"/>
            <path class="cls-1" d="M295.59,580.24l.93,8.74c.37,1.63-.88,3.11-1.09,4.48.86-5.31-.93-10.08-.93-15.75l-.05-143.36c.38-.05.75.29.78.52l.37,145.37Z"/>
            <path class="cls-1" d="M372.86,647.49c16.39-3.44,32.74-17.06,43.02-30.26,1.05.01,1.5,1,.92,1.68-5.73,6.72-11.47,13.2-18.31,18.98s-16.37,8.92-25.05,11.73c-.12-1.24-.18-1.58-.58-2.12Z"/>
            <path class="cls-1" d="M356.92,659.14c.76.14.68.31-.14.5-.71.61.05,1.26.75,1.33-15.56,2.94-31.88,1.95-46.97-4.39-1.02-.43-.4-1.51.18-1.87,9.75,3.68,20.36,5.49,31.18,5.65l15-1.22Z"/>
            <path class="cls-1" d="M356.79,659.64l.14-.5c2.4-.2,4.53-1.7,7.58-.71-2.54.91-5.14,1.51-7.71,1.2Z"/>
          </g>
          <g>
            <path class="cls-1" d="M294.32,600.29c2.46,2.38,4.01,5.75,4.65,10.13,7.22,19.04,18.9,33.92,39.59,38.65,9.2,2.1,24.22,2.54,32.75-1.25-.26-1.03.98-1.26,1.55-.33,4.94.62,11.28-2.41,16.08-4.99,10.5-5.64,20.56-15.62,26.62-23.91l.31-1.36-.6-.55,4.01-5.99c.91-57.96,1.08-116.14.5-174.55.21-7.36-.02-13.71-7.18-17.19-.04-.33.17-.7.44-1.07,1.16-1.56,34.69-.83,38.73-.16.65.11.47,1.36-.23,2.11-.05,1.25-2.66,2.34-3.47,1.25l-2.69,1.78c-.1,2.25-.71,4.31-1.81,6.17-.56,71.98-1.01,144.87.11,216.95-.06,5.05,2.58,7.98,5.71,11.23.18-.57.35-1.01.46-.99,1.89.22,11.65,2.16,11.83,3.21.39,2.35-6.83,2.57-8.3,1.14-2.48-.18-4.15-.58-5-1.21l-27.89-.21c-.43-11.84-.8-23.91-1.1-36.21l-2.3-.3c.98,1.14.84,2.66-.67,2.26l-6.11,7.57-14.87,13.45c-13.92,7.33-20.88,11-20.88,11-5.71,2.69-11.39,4.05-17.03,4.07-2.14.19-2.92-.59-.75-1.33.73-.14.8-.3.14-.5l-.87,1.08c-13.75,1.85-31.18,1.94-44.06-4.07-.53-.24-.91-.8-1.24-1.44-.86.55-1.85.87-2.81.5-10.41-4-23.57-16.06-28.5-26.06-.46-.93-.23-1.94.23-2.84-5-3.75-6.75-11.74-7.98-18.05-1.33-6.82-1.48-13.82-1.54-20.77l-.11-153.51c-.5-4.8-1.41-9.98-5.03-13.49-.55.59-.83.45-.87-.37-1.31-.4-2.02-1.75-.98-2.52,2.02-1.47,31.25.03,35.9.27l.03,1.35c-4.92,3.67-5.47,8.7-5.04,14.49l-.69.62c-.19,47.69-.23,95.43-.13,143.23.66,7.66,1.03,15.24,1.1,22.72Z"/>
            <path class="cls-1" d="M445.98,426.2c-.77-1.88,1.14-3.39,2.09-5.12l3.47-1.25.28-1.78c-12.76-.85-25.6-1.03-38.52-.53-.08.02-1.49.73-1.42.77,4.57,2.76,9.63,7.75,6.86,13.55-.68,59.74-.75,119.61-.23,179.6l-.77.6-.76-182.44c0-2.96-1.17-6.04-3.3-7.24-3.76-2.11-7.86-1.47-11.91-2.18-1.69-.3-1.54-5.01.02-5.05l14.41-.45,43.13-.15c2.26,0,3.89,2.11,3.37,3.74-1.57,4.94-11.84-1.12-16.72,7.93Z"/>
            <path class="cls-1" d="M419.28,610.68c.04.62.08,2.05-.33,2.59l-3.08,3.95c.16.59.23,1.11,0,1.41-9.61,12.56-25.83,26.54-41.69,29.63-.38.07-.84-.29-1.32-.78l-1.55.33c-6.77,3.28-17.5,3.13-25.24,2.39-11.89-1.14-28.7-7.94-35.38-18.19-.31-.47,1.01-1.15,2.02-.76,12.44,13.22,30.8,18.91,49.17,16.79,25.21-2.92,40.93-15.47,55.9-36l.17-179.14c0-.88.46-1.06.83-1.06l.85.15c.8,59.78.69,119.35-.33,178.69Z"/>
            <path class="cls-1" d="M453.39,660.56c2.34,0,4.8.57,7.61-.95l-11.61-2.4c-.63-.73-.96-1.84-.36-2.6,6.4,3.85,12.82.34,13.37,4.75.12.97-.46,3.03-2.31,2.9-14.12-.96-27.79-.85-42.43-.52-.87-12.5-.63-24.05-.47-36.82-2.46,3.03-4.34,5.43-6.88,7.54-.49-2.5,3.61-4.12,6.78-9.83,1.41-1.69,2.24-1.1,2.56,1l.39,31.58,1.49,4.01,27.16.14c1.42.7,2.98,1.11,4.7,1.21Z"/>
            <path class="cls-1" d="M451.55,419.83c.18-.37-.16-.74-.89-.84l-5.99-.84-31.39.43c4.41,2.51,6.2,5.73,6.81,10.24,1.13,8.37,1.06,16.03,1.06,24.75v149.01s-.67,6.29-.67,6.29c-.11,1.04-.51,1.66-1.2,1.81l-.52-7.16v-171.68c0-1.93.6-4.48-.46-6.68-.83-1.71-3.25-4.48-5.07-4.84l-11.13-2.22.22-1.62,58.48-.13c.59,0,.49,2.57-.16,2.57l-2.09-.02c-2.81-.02-4.93.19-7,.94Z"/>
            <path class="cls-1" d="M453.39,660.56l-34.83-.15c.15-1.85,1.22-2.34,1.62-2.92.29-.43-1.27-1.46-1.28-2.11l-.2-30.98c0-1.21-.86-1.79-1.6-1.78.52-.94,1.26-1.92,2.43-2.7,1.25,1.99,1.23,3.93,1.25,6.04l.44,32.02,27.75.16c.79,2.42,3.22,1.45,4.41,2.41Z"/>
            <g>
              <path class="cls-1" d="M448.07,421.08c.38.89-.14,2.01-1.56,3.37l-.53,1.75c.37.91-.43,1.84-.43,3.35l-.03,216.27c0,4.13,1.02,6.36,3.51,8.78.93.84,1.49,1.75.36,2.6-5.48-1.13-7.25-6.44-7.5-12.15l-.5-11.25v-109.55s.08-92.86.08-92.86c0-2.75,1.04-4.73,2.81-6.15-.33-1.3-.54-2.83.66-3.89.96-.84,2.09-.25,3.13-.28Z"/>
              <path class="cls-1" d="M443.6,644.27c-.5-3.13-.52-6.4.2-9.51l.03-203.88c.33-.03.78.29.85.53v214.38c-1.37.17-.89-1.08-1.08-1.53Z"/>
              <path class="cls-1" d="M443.6,644.27c-1.01-2.36-1.17-7.03.2-9.51l-.2,9.51Z"/>
            </g>
          </g>
        </g>
        <g>
          <path class="cls-1" d="M205.43,712.51c-1.24,1.11-1.67.62-.81-.87,3.02-11.87,5.04-23.99,6.09-36.29-.57-78.83-.64-158.1-.2-237.81-.43-3.17.16-5.36,1.75-6.56-.41-5.98-.53-10.95,6.53-12.76l-38.26.04c2.36,1.03,3.18,2.35,2.46,3.96.4-.12.73-.18.83-.05,1.88,2.25,3.01,7.81,3.64,10.97.04.2-.07.42-.21.65.07,4.64-.18,9.17-.75,13.59-.24.75-.53.74-.85,0,0-8.35.08-21.64-4.58-24.81-5.71-3.89-15.61.09-14.22-5.64.49-2,2.11-1.97,4.12-2.02,18.91-.44,37.21-.52,56.12.08,2.3.07,4.17-.02,4.21,2.65.07,5.07-9.84.68-15.21,5.91-1.56,1.52-2.7,5.18-2.7,7.98l-.18,236.3c-1.59,5.01-.49,9.28-1.05,14.09-1.24,10.65-2.66,21.03-6.72,30.59Z"/>
          <path class="cls-1" d="M160.69,734.31l-.63-1.12c8.18-3.55,13.79-9.35,17.97-17.14.17-.53-.02-1.76,1.14-1.8,4-12.44,6.83-26.02,5.65-38.92l.82-2.58c.25-.75.54-.74.87,0,.31-79.32.55-158.97.74-238.96-2.55-3.71-1.26-8.43-4.26-11.57-.99-1.92.49-2.71,2.34-1.67,3.37,1.89,5.13,15.37,5.48,19.31l-.09,230.66c-1.15,19.31-2.96,48.09-19.05,60.98-2.48,1.98-9.58,6.85-10.98,2.81Z"/>
          <path class="cls-1" d="M186.5,672.75h-.87s.01-225.37.01-225.37h.85c.64,73.82.81,151.44,0,225.37Z"/>
          <path class="cls-1" d="M203.01,716.72c-9.25,17.81-27.63,28.88-48.12,26.5-8.9-1.03-24.17-3.53-23.59-7.82.13-1,1.22-2.28,2.63-2.04l8.49,1.45c.73.32.7.63-.07.93l-.56.99c-2.48-.14-3.21.49-2.18,1.88,2.38-.43,7.65.41,8.02,2.48,6.47.54,12.84.37,19.12-.52.57-1.09,1.97-.99,4.19.31.85-1.29,2.57-1.88,5.16-1.76.1-.62.37-.57.78.02l.69-1.28c10.7-4.1,18.77-12.78,24-22.79,1.72-.92,2.42-.05,1.44,1.66Z"/>
          <path class="cls-1" d="M207.04,698.62c-.49,4.22-1.3,8.56-2.43,13.02l.81.87-2.41,4.21c-.01-.84-.81-.94-1.2-.25-5.8,10.31-14.26,18.6-24.92,22.66-2.24-.58-2.78-1.52-1.63-2.8,15.8-6.28,25.74-20.58,28.74-37.07l2-1.57c.67-.65,1.02-.34,1.05.93Z"/>
          <path class="cls-1" d="M179.16,714.26c3.5-12.66,5.8-25.71,5.65-38.92.24-.06.88.31.89.96.09,13.13-1.72,26.32-6.54,37.96Z"/>
          <path class="cls-1" d="M160.69,734.31c.24.7.46,1.55.04,2.09-.63.82-15.57,1.26-17.45.49-.4-.16-.67-.62-.92-1.17l.07-.93c14.42.17,26.27-3.54,33.41-16.54.67-1.22,1.01-1.99,2.2-2.21-2.3,7.24-8.43,12.91-15.47,16.56-.96.5-1.54.8-1.87,1.69Z"/>
          <path class="cls-1" d="M212.25,430.99l-1.38.87c-.59,78.63-.83,157.55-.72,236.76-.45.18-.8.36-.81.56-.4,9.55-.93,18.46-2.7,28.03-.04.19-.31.35-.66.48-2.2,15.87-12.4,33.59-28.69,39.23-.32.11-1.07.78-1.09,1.01-.03.35.44.83.68,1.2-.25-.06-.54-.07-.78-.02-2.73-.05-4.45.54-5.16,1.76-7.67,1.41-15.64,1.37-23.31.21.05-1.38,1.28-1.88,3.7-1.49-3.92-.11-7.83-.44-11.73-.99l-6.02-1.69c-1.16-.32-.93-1.89-.2-2.24-.28.13,4.31.62,8.96,1.06s9.54-.29,14.65-.58c1.55-.09,2.84.21,3.68-.84,2.1.62,4.06-.7,6.11-1.76,19.06-9.84,20.55-41.09,22.2-62.11l.1-230.42-2.14-13.07c-.3-1.81-1.58-3.54-2.49-5.1-.2-.32-1.4.16-1.48.38-3.44-3.39-8.69-3.96-13.56-3.61-.99.07-1.33-1.23-.74-1.66.31-.22.72-.4,1.56-.4l58.36-.1c1.1,0,1.25,1.62.66,1.74l-1.7.34c-3.92.8-8.99.5-12.11,3.33-2.52,2.28-2.68,6.44-3.19,9.11Z"/>
          <path class="cls-1" d="M212.25,430.99c-.45,2.38-.73,3.99-.73,7.1l.02,236.16c0,.89-.57,1.1-.84,1.1-.58-.1-.34-1.29-.34-1.22-.26,8.03-.82,17.25-3.32,24.49l-1.05-.93,1.89-13.64.88-9.72.38-144.86.33-90.13c.02-5.18-.19-10.13,2.2-14.82.51,2.58-1.42,4.87.58,6.48Z"/>
          <path class="cls-1" d="M186.5,672.75v-225.37s.74-13.59.74-13.59l.15,243.69c-.28.23-.52.45-.57.47-.59-1.72-.32-3.49-.32-5.2Z"/>
          <path class="cls-1" d="M210.7,675.35c.04,12.23-2.09,24.7-6.09,36.29-1.87-1.97,1.37-5.63,2.43-13.02l1.99-13.83c.75-5.24,1.13-10.07.9-15.62,1.32,2.01.76,4.15.77,6.18Z"/>
          <path class="cls-1" d="M147.64,741.09l-3.74-1.51-4.28-.98c2.37-1.99,4.27.08,6.66.17l20.55.78c-6.99,3.98-14.69-1.27-19.19,1.53Z"/>
          <path class="cls-1" d="M176.11,739.11c-1.17,1.43-3.36,1.43-5.16,1.76-.34-.29-.76-.54-1.79-1.14,2.14-1.62,4.57-1.56,6.95-.62Z"/>
        </g>
      </g>
      <g>
        <path class="cls-1" d="M523.27,422.87l.72.38-2.34,4.58c-.73,64.84-.86,129.39-.42,193.64l.29-1.57c.56.34.88.83.85,1.92-.22,7.92,2.09,16.08,7.84,21.46,3.68,4.22,8.79,6.83,15.34,7.83l.15,1.01c-1.19,3.1-6.26,1.63-9.01.8-14.39-4.38-18.06-17.92-19.95-31.48l-.44-185.58c-.01-3.48.97-14.58,5.17-14.85,1.37-.09,1.61.32,1.78,1.87Z"/>
        <path class="cls-1" d="M495.62,630.44c-.33,4.59-.62,9.2-.86,13.82,1.31-.01.92.95-.03,1.7.89.1,1.25.42,1.14,1.13-.52,3.46-1.98,9.86-6.36,9.26l-.38,1.87-10.23,1.63c1.31-.41,1.98-.15,2,.81l9.43-.59c32.03-.81,64.01-1.02,95.96-.62l.6,1.15,3.7-.66c1.44-1.49,1.81-1.4,2.59.72l.07-.63c12.23-.66,24.49-.93,36.78-.8.55-.06.85-.4,1.19-.79,1.3-1.51-.22-34.76-.66-39.56.19,2.18-.53,3.44-2.16,3.76-1.13.22-1.37-.93-.72-3.44l1.15-15.58c.13-1.71.29-2.97,1.26-3.29,1.59-.52,3.09-.27,3.62.49.76,1.09.16,2.51.15,3.72l-.11,56.94-143.63.22c-4.48,0-8.7,1.39-12.91-.08-1.35-.47-1.02-3.3.12-4.09,3.07-2.12,11.71.43,14.26-5.06,1.21-2.6,2.08-6.23,2.1-9.2l.59-74.67.43-71.17c-.58-20.78-.68-41.62-.28-62.5l1.17.34c.66,63.72.79,131.18,0,195.15Z"/>
        <path class="cls-1" d="M521.52,619.9c0,1.55.59,3.57-.64,5.43l-.48-42.3.16-6.29.17-148.11,2.54-5.75c-.4-2.33,1.39-3.91,5.38-4.72-13.7.02-27.4,0-41.09-.06l.04,1.68c5.38,1.07,8.31,5.4,8.8,12.97.02,1.11-.24,1.96-.78,2.54-.35-.03-.83.29-.84.96l-.06,61.21c-.32.04-.81-.27-.81-.95l-.15-66.98c0-3.31-1.91-6.39-4.67-7.47-6.9-2.7-13.81.24-12.58-5.24.48-2.13,2.17-2,4.42-1.99l57.52.16c1.6,0,2.05,2.38,1.74,3.35-1.18,3.7-7.97.71-14.23,4.31-2.5,1.44-4.36,5.17-4.37,8.71l-.09,188.56Z"/>
        <path class="cls-1" d="M628.4,622.66c.7.1,1.64.53,1.53.96-4.37,16.26-8.24,24.18-24.67,28.3-1.5,1.42-4.03,2.08-5.73.94-.94,2.72-3.5,2.59-4.61.04-13.72,1.04-27.52,1.27-41.4.7-2.95.25-5.55-.24-7.82-1.47-4.36-1.93-11.21-2.92-14.83-6.68l-1.52-1.58c-.16-.17.2-.69.86-.58,5.22,4.87,13.33,7.43,21.14,7.46l48.47.18c12.61.05,22.56-8.06,25.06-19.94l2.8-11.76c-.09,1.17-.31,2.72.72,3.44Z"/>
        <path class="cls-1" d="M523.27,422.87c-3.81-1.98-5.27,7.16-5.26,15.19l.25,178.08c.01,7.9,1.47,14.88,4.39,21.85,3.9,9.32,13.42,15.12,23.07,14.13,2.47,1.27,5.22,1.76,8.24,1.48,13.74.58,27.4.34,40.98-.7,1.47,0,3.24.33,4.61-.04,2.34.64,4.75.22,7.23-1.26,3.54-.3,7.03-1.74,10.47-4.33l1.16.46c.71.07,1.4.26,1.94.75,3.66,3.31-4.13,9.87-8.43,9.5l-.33,1.17c-5.83.33-11.68.58-17.55.76,1.08.06.8.31-.82.76l-6.29-.06c-.1-.69-.22-1.24-.37-1.24-31.79-.4-64.49-.27-96.04.7l-9.58.59-2.1.02c-.72,0-1.01-1.48-.34-1.66,3.91-1.02,7.85-.87,11.05-2.68,4.8.16,6.38-7.31,7.19-11.27.65-70.73.66-141.54.04-212.41-.91-7.42-3.96-11.72-9.14-12.89-4.75-1.56-9.3-.4-9.96-2.13-.11-.29.41-1.22.96-1.22h58.36c.99,0,1.73.52,1.68,1.14-.14,1.96-9.65.21-15.38,5.3Z"/>
        <path class="cls-1" d="M593.19,660.66c-.1-.3-.14-1,.06-1.25.26-.33.89-.45,1.61-.49l17.03-.94c5.28-1.78,10.87-2.41,16.75-1.87l-.22-18.49-3.43,5.3c-1.71,3.22-3.91,4.83-6.6,4.82-2.94,2.72-11.19,5.74-11.54,5.47l-1.32-1c-.46,1.72-1.77,2.3-3.19,2.22-.89-.05-2.42.15-2.81-1.57,14.34-3.89,21.96-5.27,27.19-24.15l1.67-6.04,2.21-20.72h1.21s.64,23.72.64,23.72l.51,35h-39.79Z"/>
        <path class="cls-1" d="M489.51,656.35c3.79-2.14,5.15-6.18,5.22-10.39l1.07-1.68c.09-70.48.29-140.99.6-211.52-3.32-2.59.47-9.74-8.8-12.97,3.96-1.93,7.63,3.23,8.84,9.41l1.72,8.77-.35,70.27-.32,97.04c-.01,3.83.36,6.68.29,10.62l-.54,29.21c-.08,4.2-1.67,8.14-3.92,11.6-.59.91-3.2.13-3.79-.35Z"/>
        <path class="cls-1" d="M586.9,660.61l-105.99.05c2.81-1.95,7.41.52,12.94-2.44l97.7-.1c-1.25,2.31-3.37,1.55-4.65,2.49Z"/>
        <path class="cls-1" d="M494.73,645.96l.03-1.7c.33-4.59.62-9.2.86-13.82v-195.15s.78-2.54.78-2.54l.11,211.27c0,1.38-1.21,1.84-1.78,1.93Z"/>
        <path class="cls-1" d="M494.76,644.25l-.04-12.15c0-.92.33-1.57.91-1.67l.05,12.15c0,.93-.34,1.58-.91,1.67Z"/>
        <path class="cls-1" d="M594.92,652.89c-.38.82-2.17,1.25-3.33,1.01-5.04-1.04-9.26,1.28-13.9,1.16l-28.86-.72c-1.97-.05-2.73-1.65-3.12-2.24l7.85.6,41.37.18Z"/>
        <path class="cls-1" d="M611.89,657.97c1.41-2.14,4.86-1.76,6.79-5.17.84-1.48,0-3.42-.29-5.07,5.85-5.42,9.8-12.09,11.6-20.04l.47,30.13-18.57.16Z"/>
      </g>
    </g>
  </g>
  <g>
    <path class="cls-1" d="M823.7,733.72c1.7,1.9,9.3,1.72,11.43.11,1.21-.92,1.08-2.67,2.66-4.76.67,2.59.15,4.55.15,7.41l-21.5-.06c1.39-2.38,1.48-3.76,1.48-5.8v-23.35c0-2.13.1-3.44-1.74-5.5l7.77-.02c-2.35,2.8-2.45,10.46-1.73,14.05,1.98,9.92-2.12,13.85,1.49,17.91Z"/>
    <path class="cls-1" d="M823.48,735.8c-1.48-.21-2.84-.67-4.15-1.61l.23-31.24h1.47s.12,30.28.12,30.28c.42.62,2.04.94,2.33,2.57Z"/>
  </g>
  <g>
    <path class="cls-1" d="M332.38,734.05l-12.92-32.63c-.29,2.23-1.04,3.72-2.23,4.47l-10.77,27.65-1.99,2.67,3.49.09c.82.02.51-2.13.84-2.99l5.03-13.23,8.41.1,4.89,13.17.41,2.58c.12.8,5.3,1.12,6.18.1.35-.4-1.05-1.22-1.35-1.97ZM314.19,718.78l3.41-9.29c2.32,3.22,2.84,6.23,3.99,9.61-2.95.1-4.8.21-7.41-.32Z"/>
    <path class="cls-1" d="M317.22,705.88c.56-1.45.13-3.55,2.23-4.46l11.36,33.35c-.4-.01-1.03,0-1.45.15l-9.55-24.47c-.7-1.8-.93-3.56-2.59-4.57Z"/>
  </g>
</svg>